<svg width="464" height="553" viewBox="0 0 464 553" fill="none" xmlns="http://www.w3.org/2000/svg">
<g clip-path="url(#clip0_51_346)">
<path d="M412.03 528.06C391.61 541.89 366.92 548.8 337.94 548.8C318.51 548.8 300.23 541.49 283.11 526.83C265.99 512.19 252.16 491.76 241.62 465.58C231.08 439.41 225.83 410.85 225.83 379.89C225.83 348.93 231.01 320.38 241.39 294.2C251.75 268.03 265.17 247.61 281.64 232.96C298.09 218.3 315.55 210.98 333.99 210.98C347.16 210.98 359.84 212.96 372.01 216.91C384.2 220.86 394.16 225.39 401.9 230.49C409.64 235.6 416.71 241.53 423.14 248.27C429.57 255.01 434.02 260.13 436.47 263.58C438.94 267.03 440.84 270.09 442.15 272.71H446.1V211.97H442.15V228.26C442.15 233.52 440.34 237.23 436.72 239.37C433.1 241.53 428.48 240.95 422.89 237.64C406.44 226.78 392.11 218.96 379.94 214.18C367.74 209.41 352.43 207.02 334 207.02C307.33 207.02 282.38 214.43 259.17 229.25C236.27 243.86 217.98 264.1 204.21 289.92H203.99C203.91 290.17 203.77 290.55 203.67 290.85C203.65 290.9 203.62 290.93 203.6 290.98C198.9 299.93 195.08 309.18 191.98 318.68C190.67 321.1 189.16 323.69 187.43 326.47C183.98 332.08 179.69 336.18 174.59 338.82C169.49 341.46 163.48 342.77 156.56 342.77H55.81V2.96H79.52V0H0V2.96H23.71V342.78H0V345.74H185.42C183.74 356.02 182.85 366.56 182.85 377.44C182.85 408.72 190.27 438.01 205.08 465.34C219.91 492.69 239.32 514.17 263.36 529.8C287.39 545.44 312.57 553.1 338.92 552.78C397.86 552.12 439.34 524.62 463.4 470.29H458.45C447.91 494.98 432.43 514.24 412.03 528.07" fill="black"/>
</g>
<defs>
<clipPath id="clip0_51_346">
<rect width="463.4" height="552.77" fill="white"/>
</clipPath>
</defs>
</svg>
