<svg width="244" height="62" viewBox="0 0 244 62" fill="none" xmlns="http://www.w3.org/2000/svg">
<path d="M25.1433 58.1438C25.7738 58.1438 26.3081 58.059 26.7491 57.8894C27.1901 57.7198 27.501 57.5558 27.6848 57.3975L28.0212 58.0618C27.8261 58.2428 27.4756 58.4294 26.9696 58.6159C26.4664 58.8025 25.8557 58.8958 25.1433 58.8958C24.4762 58.8958 23.8599 58.7771 23.2973 58.5368C22.7319 58.2965 22.24 57.9629 21.8216 57.536C21.4004 57.1091 21.0753 56.6144 20.8435 56.049C20.6117 55.4836 20.4929 54.8758 20.4929 54.2228C20.4929 53.5697 20.6088 52.9591 20.8378 52.3909C21.0668 51.8227 21.3947 51.3223 21.8131 50.8926C22.2344 50.4629 22.7262 50.1265 23.2916 49.8862C23.857 49.643 24.4733 49.5215 25.1405 49.5215C25.8529 49.5215 26.4607 49.6148 26.9667 49.8014C27.4699 49.9879 27.8233 50.1745 28.0184 50.3554L27.682 51.0198C27.501 50.8615 27.1872 50.6975 26.7462 50.5279C26.3052 50.3583 25.7709 50.2735 25.1405 50.2735C24.6119 50.2735 24.1143 50.3696 23.6535 50.559C23.1927 50.7484 22.7856 51.017 22.4322 51.3647C22.0817 51.7124 21.8046 52.128 21.6068 52.6086C21.4089 53.0892 21.3099 53.6206 21.3099 54.2002C21.3099 54.7797 21.4089 55.3197 21.6068 55.8031C21.8046 56.2865 22.0817 56.7021 22.4322 57.0498C22.7856 57.3975 23.1899 57.6661 23.6535 57.8555C24.1143 58.0449 24.609 58.141 25.1405 58.141" fill="white"/>
<path d="M31.3175 58.734H30.5486V53.1083H31.3175V54.1232H31.2836C31.3034 54.0045 31.3854 53.8518 31.5324 53.668C31.6822 53.4843 31.8829 53.3175 32.1402 53.1677C32.3946 53.0178 32.6971 52.9443 33.0448 52.9443C33.3106 52.9443 33.5367 52.9754 33.7261 53.0433C33.9155 53.1111 34.0456 53.179 34.1191 53.2468L33.777 53.9112C33.7176 53.8518 33.6074 53.7924 33.4463 53.7331C33.2851 53.6737 33.0872 53.6426 32.8611 53.6426C32.5444 53.6426 32.2731 53.7472 32.0412 53.9564C31.8123 54.1656 31.6313 54.4172 31.5069 54.7056C31.3797 54.9967 31.3175 55.2625 31.3175 55.5028V58.7284V58.734Z" fill="white"/>
<path d="M40.6071 58.734V57.5552C40.576 57.6767 40.4686 57.8463 40.2876 58.0612C40.1067 58.2761 39.8579 58.4711 39.5413 58.6407C39.2247 58.8132 38.8487 58.898 38.4133 58.898C37.9073 58.898 37.438 58.7821 37.0112 58.5446C36.5843 58.31 36.2422 57.9707 35.985 57.5241C35.7277 57.0774 35.5977 56.5459 35.5977 55.924C35.5977 55.3021 35.7277 54.7706 35.985 54.3239C36.2422 53.8772 36.5843 53.538 37.0112 53.3005C37.438 53.0631 37.9045 52.9443 38.4133 52.9443C38.8459 52.9443 39.2219 53.0235 39.5385 53.1875C39.8551 53.3486 40.1039 53.5352 40.2876 53.7472C40.4714 53.9564 40.576 54.1345 40.6014 54.273V53.1083H41.3676V58.734H40.6071ZM36.3723 55.924C36.3723 56.3989 36.474 56.8088 36.6804 57.1509C36.8839 57.493 37.1525 57.7559 37.4776 57.9396C37.8027 58.1206 38.1476 58.2139 38.5066 58.2139C38.9052 58.2139 39.2586 58.1206 39.5696 57.9312C39.8806 57.7446 40.1265 57.4788 40.3074 57.1368C40.4884 56.7947 40.5788 56.3904 40.5788 55.924C40.5788 55.4575 40.4884 55.0533 40.3074 54.7112C40.1265 54.3691 39.8806 54.1006 39.5696 53.914C39.2586 53.7246 38.9052 53.6285 38.5066 53.6285C38.1448 53.6285 37.8027 53.7218 37.4776 53.9055C37.1497 54.0893 36.8839 54.355 36.6804 54.6971C36.474 55.0391 36.3723 55.4491 36.3723 55.924Z" fill="white"/>
<path d="M43.5471 53.1087H44.7995V51.4663C44.7995 50.8811 44.8899 50.4203 45.0737 50.0839C45.2546 49.7475 45.4864 49.5072 45.7663 49.3602C46.0462 49.2132 46.3317 49.1396 46.6229 49.1396C46.9706 49.1396 47.2392 49.1877 47.4314 49.2866C47.6236 49.3856 47.7367 49.4478 47.7678 49.4732L47.4314 50.098C47.406 50.0726 47.3268 50.0217 47.1968 49.9482C47.0667 49.8747 46.883 49.8379 46.6512 49.8379C46.4787 49.8379 46.3091 49.8803 46.1451 49.9651C45.9812 50.0499 45.8455 50.2139 45.7352 50.4627C45.625 50.7086 45.5712 51.079 45.5712 51.5737V53.1087H47.2703V53.807H45.5712V58.7345H44.8023V53.807H43.5499V53.1087H43.5471Z" fill="white"/>
<path d="M48.9863 53.1085H50.1567V50.7988H50.9313V53.1085H52.4664V53.8152H50.9313V57.1511C50.9313 57.5243 50.9991 57.7928 51.1377 57.9511C51.2734 58.1123 51.4458 58.1914 51.6522 58.1914C51.8473 58.1914 51.9971 58.1575 52.096 58.0897C52.1978 58.0218 52.2572 57.9766 52.2741 57.954L52.6388 58.5505C52.6105 58.5731 52.5483 58.6126 52.4551 58.6692C52.3589 58.7257 52.2345 58.7794 52.0791 58.8275C51.9236 58.8756 51.737 58.8982 51.5165 58.8982C51.1377 58.8982 50.8154 58.7766 50.5525 58.5307C50.2896 58.2875 50.1595 57.8946 50.1595 57.3546V53.8124H48.9892V53.1057L48.9863 53.1085Z" fill="white"/>
<path d="M55.3836 50.8275C55.2196 50.8275 55.0811 50.7681 54.9624 50.6522C54.8465 50.5363 54.7871 50.3949 54.7871 50.231C54.7871 50.067 54.8465 49.92 54.9652 49.8013C55.0839 49.6853 55.2225 49.626 55.3808 49.626C55.491 49.626 55.5928 49.6542 55.6861 49.708C55.7794 49.7617 55.8557 49.8352 55.9123 49.9228C55.9688 50.0133 55.9999 50.1122 55.9999 50.2281C55.9999 50.3921 55.9377 50.5334 55.819 50.6494C55.6974 50.7653 55.5532 50.8246 55.3836 50.8246M54.9878 53.1088H55.7624V58.7346H54.9878V53.1088Z" fill="white"/>
<path d="M61.6115 52.9443C61.9677 52.9443 62.3154 53.0207 62.6546 53.1733C62.9939 53.326 63.2709 53.5691 63.4914 53.8999C63.7091 54.2306 63.8194 54.6575 63.8194 55.1833V58.7312H63.025V55.3699C63.025 54.7423 62.878 54.2928 62.5868 54.0158C62.2956 53.7416 61.9196 53.603 61.4645 53.603C61.162 53.603 60.8708 53.6907 60.5909 53.8631C60.3111 54.0356 60.0793 54.273 59.8983 54.5755C59.7174 54.878 59.6269 55.2144 59.6269 55.5904V58.734H58.8467V53.1083H59.6269V54.191C59.658 54.0299 59.7683 53.8546 59.952 53.6596C60.1386 53.4645 60.3761 53.2977 60.6644 53.1564C60.9556 53.015 61.2722 52.9443 61.6143 52.9443" fill="white"/>
<path d="M71.164 58.734V57.5552C71.1329 57.6767 71.0255 57.8464 70.8445 58.0612C70.6636 58.2761 70.4148 58.4711 70.0982 58.6407C69.7816 58.8132 69.4056 58.898 68.9702 58.898C68.4642 58.898 67.9949 58.7821 67.568 58.5446C67.1412 58.31 66.7991 57.9707 66.5418 57.5241C66.2846 57.0774 66.1545 56.5459 66.1545 55.924C66.1545 55.3021 66.2846 54.7706 66.5418 54.3239C66.7991 53.8772 67.1412 53.538 67.568 53.3005C67.9949 53.0631 68.4614 52.9443 68.9702 52.9443C69.4028 52.9443 69.7788 53.0235 70.0954 53.1875C70.412 53.3486 70.6608 53.5352 70.8445 53.7472C71.0283 53.9564 71.1329 54.1345 71.1583 54.273V53.1083H71.9244V58.734H71.164ZM69.1342 61.7335C68.6677 61.7335 68.2607 61.6826 67.9129 61.5836C67.568 61.4819 67.2769 61.349 67.0394 61.1822C66.8048 61.0154 66.6238 60.8373 66.4938 60.6451L67.0677 60.139C67.1496 60.2521 67.2656 60.3822 67.4097 60.5235C67.5539 60.6649 67.7631 60.7893 68.0317 60.891C68.3031 60.9928 68.6593 61.0465 69.1088 61.0465C69.5582 61.0465 69.9314 60.9447 70.2339 60.744C70.5364 60.5433 70.7682 60.2776 70.9237 59.944C71.0792 59.6104 71.1555 59.2429 71.1555 58.8415V58.6436H71.916V58.9036C71.916 59.5171 71.7916 60.0344 71.5428 60.4557C71.294 60.8797 70.9576 61.1992 70.5364 61.414C70.1123 61.6317 69.6459 61.7391 69.1285 61.7391M66.9291 55.924C66.9291 56.3989 67.0309 56.8088 67.2373 57.1509C67.4408 57.493 67.7094 57.7559 68.0345 57.9396C68.3596 58.1206 68.7045 58.2139 69.0635 58.2139C69.4621 58.2139 69.8155 58.1206 70.1265 57.9312C70.4374 57.7446 70.6834 57.4788 70.8643 57.1368C71.0452 56.7947 71.1357 56.3904 71.1357 55.924C71.1357 55.4575 71.0452 55.0533 70.8643 54.7112C70.6834 54.3691 70.4374 54.1006 70.1265 53.914C69.8155 53.7246 69.4621 53.6285 69.0635 53.6285C68.7017 53.6285 68.3596 53.7218 68.0345 53.9055C67.7066 54.0893 67.4408 54.355 67.2373 54.6971C67.0309 55.0391 66.9291 55.4491 66.9291 55.924Z" fill="white"/>
<path d="M83.3426 58.1438C83.973 58.1438 84.5073 58.059 84.9483 57.8894C85.3893 57.7198 85.7003 57.5558 85.884 57.3975L86.2204 58.0618C86.0254 58.2428 85.6748 58.4294 85.1688 58.6159C84.6656 58.8025 84.055 58.8958 83.3426 58.8958C82.6754 58.8958 82.0591 58.7771 81.4965 58.5368C80.934 58.2965 80.4421 57.9629 80.0208 57.536C79.5996 57.1091 79.2745 56.6144 79.0427 56.049C78.8109 55.4836 78.6921 54.8758 78.6921 54.2228C78.6921 53.5697 78.808 52.9591 79.037 52.3909C79.266 51.8227 79.594 51.3223 80.0123 50.8926C80.4336 50.4629 80.9255 50.1265 81.4909 49.8862C82.0563 49.643 82.6726 49.5215 83.3397 49.5215C84.0521 49.5215 84.6599 49.6148 85.166 49.8014C85.6692 49.9879 86.0225 50.1745 86.2176 50.3554L85.8812 51.0198C85.7003 50.8615 85.3865 50.6975 84.9455 50.5279C84.5045 50.3583 83.9701 50.2735 83.3397 50.2735C82.8111 50.2735 82.3135 50.3696 81.8527 50.559C81.3919 50.7484 80.9848 51.017 80.6315 51.3647C80.2809 51.7124 80.0039 52.128 79.806 52.6086C79.6053 53.0892 79.5091 53.6206 79.5091 54.2002C79.5091 54.7797 79.6081 55.3197 79.806 55.8031C80.0039 56.2865 80.2809 56.7021 80.6315 57.0498C80.9848 57.3975 81.3891 57.6661 81.8527 57.8555C82.3135 58.0449 82.8082 58.141 83.3397 58.141" fill="white"/>
<path d="M89.2425 50.8275C89.0785 50.8275 88.9372 50.7681 88.8213 50.6522C88.7054 50.5363 88.646 50.3949 88.646 50.231C88.646 50.067 88.7054 49.92 88.8241 49.8013C88.9428 49.6853 89.0813 49.626 89.2425 49.626C89.3527 49.626 89.4545 49.6542 89.5478 49.708C89.6411 49.7617 89.7174 49.8352 89.774 49.9228C89.8305 50.0104 89.8616 50.1122 89.8616 50.2281C89.8616 50.3921 89.7994 50.5334 89.6807 50.6494C89.5591 50.7653 89.4149 50.8246 89.2453 50.8246M88.8439 53.1088H89.6185V58.7346H88.8439V53.1088Z" fill="white"/>
<path d="M95.4705 52.9443C95.8267 52.9443 96.1744 53.0207 96.5108 53.1733C96.8501 53.326 97.1271 53.5691 97.3476 53.8999C97.5653 54.2306 97.6756 54.6575 97.6756 55.1833V58.7312H96.8812V55.3699C96.8812 54.7423 96.7342 54.2928 96.443 54.0158C96.149 53.7416 95.7758 53.603 95.3207 53.603C95.0182 53.603 94.727 53.6907 94.4471 53.8631C94.1673 54.0356 93.9355 54.273 93.7545 54.5755C93.5736 54.878 93.4831 55.2144 93.4831 55.5904V58.734H92.7029V53.1083H93.4831V54.191C93.5142 54.0299 93.6216 53.8546 93.8082 53.6596C93.992 53.4645 94.2323 53.2977 94.5206 53.1564C94.8118 53.015 95.1256 52.9443 95.4705 52.9443Z" fill="white"/>
<path d="M100.78 56.0143C100.783 56.4073 100.862 56.7748 101.014 57.1169C101.167 57.4589 101.399 57.736 101.71 57.9452C102.021 58.1544 102.411 58.259 102.88 58.259C103.265 58.259 103.584 58.1968 103.844 58.0724C104.104 57.948 104.308 57.801 104.46 57.6342C104.613 57.4674 104.723 57.3176 104.786 57.1847L105.272 57.6653C105.102 57.9254 104.907 58.1487 104.687 58.3325C104.463 58.5162 104.206 58.6576 103.906 58.7537C103.607 58.847 103.25 58.8951 102.841 58.8951C102.244 58.8951 101.732 58.7622 101.311 58.4936C100.887 58.2279 100.565 57.8632 100.344 57.4024C100.121 56.9416 100.011 56.4243 100.011 55.8476C100.011 55.2709 100.121 54.8044 100.339 54.3662C100.559 53.928 100.876 53.5803 101.289 53.3259C101.701 53.0714 102.202 52.9414 102.787 52.9414C103.316 52.9414 103.776 53.0573 104.169 53.2891C104.559 53.5209 104.862 53.846 105.08 54.2588C105.297 54.6715 105.405 55.1521 105.405 55.7006C105.405 55.743 105.405 55.7938 105.405 55.8589C105.405 55.9239 105.399 55.9719 105.393 56.0087H100.783L100.78 56.0143ZM104.622 55.3613C104.619 55.1125 104.557 54.8525 104.441 54.5754C104.325 54.3012 104.135 54.0637 103.872 53.8715C103.61 53.6764 103.25 53.5803 102.793 53.5803C102.335 53.5803 101.939 53.6764 101.659 53.8658C101.379 54.0552 101.175 54.2871 101.045 54.5613C100.915 54.8327 100.839 55.1012 100.811 55.3613H104.622Z" fill="white"/>
<path d="M114.146 52.9442C114.561 52.9442 114.912 53.0347 115.194 53.2185C115.477 53.3994 115.692 53.6793 115.833 54.0496C115.978 54.4228 116.048 54.8949 116.048 55.4716V58.7311H115.276V55.6751C115.276 54.9684 115.18 54.4482 114.988 54.1118C114.796 53.7782 114.454 53.6114 113.962 53.6114C113.71 53.6114 113.462 53.6821 113.218 53.8206C112.975 53.9591 112.772 54.1825 112.613 54.4821C112.455 54.7846 112.373 55.1804 112.373 55.6751V58.7311H111.624V55.6751C111.624 54.9684 111.502 54.4482 111.254 54.1118C111.008 53.7782 110.683 53.6114 110.281 53.6114C110.027 53.6114 109.778 53.6793 109.538 53.8121C109.297 53.945 109.102 54.1627 108.947 54.4652C108.794 54.7705 108.718 55.1719 108.718 55.6751V58.7311H107.946V53.1054H108.718V53.9959C108.763 53.8545 108.868 53.7019 109.032 53.5379C109.193 53.3739 109.402 53.2326 109.659 53.1167C109.914 53.0008 110.208 52.9414 110.536 52.9414C110.883 52.9414 111.172 53.0177 111.398 53.1732C111.627 53.3287 111.805 53.5153 111.932 53.7273C112.059 53.9422 112.138 54.1372 112.172 54.3182C112.24 54.1033 112.365 53.8913 112.543 53.6821C112.721 53.4729 112.947 53.2948 113.221 53.1534C113.495 53.0121 113.804 52.9414 114.146 52.9414" fill="white"/>
<path d="M123.511 58.734V57.5552C123.48 57.6767 123.373 57.8463 123.192 58.0612C123.011 58.2761 122.762 58.4711 122.446 58.6407C122.129 58.8132 121.753 58.898 121.318 58.898C120.812 58.898 120.342 58.7821 119.915 58.5446C119.489 58.31 119.147 57.9707 118.889 57.5241C118.632 57.0774 118.502 56.5459 118.502 55.924C118.502 55.3021 118.632 54.7706 118.889 54.3239C119.147 53.8772 119.489 53.538 119.915 53.3005C120.342 53.0631 120.809 52.9443 121.318 52.9443C121.75 52.9443 122.126 53.0235 122.443 53.1875C122.759 53.3486 123.008 53.5352 123.192 53.7472C123.376 53.9564 123.48 54.1345 123.506 54.273V53.1083H124.272V58.734H123.511ZM119.277 55.924C119.277 56.3989 119.378 56.8088 119.585 57.1509C119.788 57.493 120.057 57.7559 120.382 57.9396C120.707 58.1206 121.052 58.2139 121.411 58.2139C121.81 58.2139 122.163 58.1206 122.474 57.9312C122.785 57.7446 123.031 57.4788 123.212 57.1368C123.393 56.7947 123.483 56.3904 123.483 55.924C123.483 55.4575 123.393 55.0533 123.212 54.7112C123.031 54.3691 122.785 54.1006 122.474 53.914C122.163 53.7246 121.81 53.6285 121.411 53.6285C121.049 53.6285 120.707 53.7218 120.382 53.9055C120.054 54.0893 119.788 54.355 119.585 54.6971C119.378 55.0391 119.277 55.4491 119.277 55.924Z" fill="white"/>
<path d="M126.545 53.1085H127.715V50.7988H128.49V53.1085H130.025V53.8152H128.49V57.1511C128.49 57.5243 128.557 57.7928 128.696 57.9511C128.832 58.1123 129.004 58.1914 129.211 58.1914C129.406 58.1914 129.555 58.1575 129.657 58.0897C129.756 58.0218 129.816 57.9766 129.835 57.954L130.197 58.5505C130.172 58.5731 130.107 58.6126 130.013 58.6692C129.917 58.7257 129.793 58.7794 129.637 58.8275C129.482 58.8756 129.295 58.8982 129.075 58.8982C128.696 58.8982 128.374 58.7766 128.111 58.5307C127.848 58.2875 127.718 57.8946 127.718 57.3546V53.8124H126.548V53.1057L126.545 53.1085Z" fill="white"/>
<path d="M132.942 50.8275C132.778 50.8275 132.637 50.7681 132.521 50.6522C132.405 50.5363 132.346 50.3949 132.346 50.231C132.346 50.067 132.405 49.92 132.524 49.8013C132.643 49.6853 132.781 49.626 132.939 49.626C133.05 49.626 133.151 49.6542 133.245 49.708C133.338 49.7617 133.411 49.8352 133.471 49.9228C133.53 50.0104 133.558 50.1122 133.558 50.2281C133.558 50.3921 133.496 50.5334 133.378 50.6494C133.256 50.7653 133.112 50.8246 132.942 50.8246M132.546 53.1088H133.321V58.7346H132.546V53.1088Z" fill="white"/>
<path d="M138.828 58.211C139.229 58.211 139.552 58.1488 139.795 58.0244C140.038 57.8972 140.185 57.8096 140.242 57.7587L140.651 58.3609C140.615 58.3891 140.513 58.4457 140.343 58.5361C140.174 58.6266 139.956 58.7086 139.687 58.7849C139.419 58.8612 139.119 58.898 138.78 58.898C138.328 58.898 137.892 58.7849 137.471 58.5616C137.05 58.3382 136.705 58.0047 136.434 57.5608C136.162 57.1198 136.024 56.5714 136.024 55.9183C136.024 55.2653 136.159 54.7112 136.434 54.2702C136.705 53.8292 137.05 53.4984 137.471 53.2779C137.892 53.0546 138.328 52.9443 138.78 52.9443C139.119 52.9443 139.416 52.9867 139.671 53.0687C139.928 53.1507 140.137 53.2412 140.301 53.3401C140.465 53.4419 140.569 53.5154 140.609 53.5606L140.205 54.1571C140.162 54.1204 140.089 54.061 139.976 53.9762C139.863 53.8914 139.71 53.8122 139.521 53.7387C139.331 53.6652 139.097 53.6285 138.828 53.6285C138.503 53.6285 138.184 53.7161 137.87 53.8942C137.553 54.0723 137.296 54.3324 137.092 54.6716C136.889 55.0137 136.787 55.4264 136.787 55.9155C136.787 56.4046 136.889 56.8201 137.092 57.1622C137.296 57.5043 137.553 57.7644 137.87 57.9425C138.186 58.1206 138.506 58.211 138.828 58.211Z" fill="white"/>
<path d="M147.371 49.6914H148.14V58.0141H151.824V58.735H147.371V49.6914Z" fill="white"/>
<path d="M156.935 58.898C156.372 58.898 155.875 58.7679 155.437 58.505C155.001 58.2421 154.659 57.8888 154.411 57.4393C154.162 56.9898 154.037 56.4922 154.037 55.941C154.037 55.3897 154.162 54.8837 154.411 54.4285C154.659 53.9734 155.001 53.6115 155.437 53.3458C155.872 53.0772 156.372 52.9443 156.935 52.9443C157.498 52.9443 157.992 53.08 158.425 53.3458C158.857 53.6115 159.197 53.9734 159.443 54.4285C159.691 54.8837 159.813 55.3869 159.813 55.941C159.813 56.495 159.691 56.9926 159.443 57.4393C159.197 57.8859 158.857 58.2421 158.425 58.505C157.992 58.7679 157.495 58.898 156.935 58.898ZM156.935 58.1912C157.359 58.1912 157.729 58.0951 158.049 57.8972C158.365 57.6993 158.611 57.4308 158.787 57.0887C158.965 56.7466 159.052 56.3622 159.052 55.9381C159.052 55.5141 158.965 55.1211 158.787 54.7762C158.611 54.4313 158.365 54.1571 158.049 53.9536C157.732 53.75 157.359 53.6483 156.935 53.6483C156.511 53.6483 156.132 53.75 155.813 53.9536C155.493 54.1571 155.244 54.4313 155.064 54.7762C154.885 55.1211 154.798 55.5084 154.798 55.9381C154.798 56.3678 154.888 56.7466 155.064 57.0887C155.242 57.4308 155.49 57.7022 155.813 57.8972C156.132 58.0951 156.505 58.1912 156.935 58.1912Z" fill="white"/>
<path d="M161.676 53.1094H162.513L164.576 57.9944L166.629 53.1094H167.465L165.034 58.7323H164.115L161.676 53.1094Z" fill="white"/>
<path d="M170.103 56.0143C170.109 56.4073 170.188 56.7748 170.341 57.1169C170.493 57.4589 170.725 57.736 171.036 57.9452C171.347 58.1544 171.737 58.259 172.206 58.259C172.591 58.259 172.91 58.1968 173.168 58.0724C173.425 57.9452 173.631 57.801 173.784 57.6342C173.937 57.4674 174.044 57.3176 174.109 57.1847L174.595 57.6653C174.426 57.9254 174.231 58.1487 174.01 58.3325C173.787 58.5162 173.529 58.6576 173.23 58.7537C172.93 58.847 172.574 58.8951 172.164 58.8951C171.568 58.8951 171.056 58.7622 170.635 58.4936C170.211 58.2279 169.888 57.8632 169.668 57.4024C169.444 56.9416 169.334 56.4243 169.334 55.8476C169.334 55.2709 169.444 54.8044 169.662 54.3662C169.883 53.928 170.196 53.5803 170.612 53.3259C171.025 53.0714 171.525 52.9414 172.11 52.9414C172.639 52.9414 173.1 53.0573 173.49 53.2891C173.88 53.5209 174.185 53.846 174.4 54.2588C174.618 54.6715 174.725 55.1521 174.725 55.7006C174.725 55.743 174.725 55.7938 174.722 55.8589C174.722 55.9239 174.717 55.9719 174.714 56.0087H170.103V56.0143ZM173.948 55.3613C173.945 55.1125 173.883 54.8525 173.767 54.5754C173.651 54.3012 173.462 54.0637 173.199 53.8715C172.936 53.6764 172.577 53.5803 172.119 53.5803C171.661 53.5803 171.265 53.6764 170.985 53.8658C170.705 54.0552 170.499 54.2871 170.372 54.5613C170.245 54.8327 170.168 55.1012 170.14 55.3613H173.951H173.948Z" fill="white"/>
<path d="M184.176 49.5243C184.676 49.5243 185.106 49.5837 185.46 49.7024C185.813 49.8211 186.093 49.9455 186.293 50.0756C186.494 50.2056 186.61 50.2876 186.644 50.3244L186.217 50.9689C186.149 50.9095 186.031 50.8247 185.858 50.7088C185.686 50.5957 185.468 50.4911 185.197 50.3979C184.928 50.3046 184.606 50.2565 184.238 50.2565C183.65 50.2565 183.187 50.3809 182.847 50.6268C182.508 50.8756 182.341 51.2177 182.341 51.6559C182.341 51.9527 182.432 52.2128 182.61 52.4333C182.788 52.6538 183.031 52.8545 183.339 53.0326C183.647 53.2107 183.998 53.3888 184.385 53.5669C184.691 53.7026 184.999 53.8581 185.307 54.0249C185.615 54.1945 185.898 54.3924 186.155 54.6214C186.412 54.8475 186.621 55.1161 186.78 55.4158C186.938 55.7154 187.017 56.066 187.017 56.4618C187.017 56.8236 186.944 57.1515 186.797 57.4512C186.65 57.748 186.443 58.0053 186.178 58.2202C185.909 58.4378 185.592 58.6046 185.228 58.7205C184.863 58.8364 184.459 58.8958 184.023 58.8958C183.5 58.8958 183.028 58.828 182.604 58.6923C182.18 58.5566 181.835 58.418 181.578 58.2739C181.318 58.1325 181.174 58.0449 181.146 58.0194L181.603 57.341C181.657 57.3862 181.756 57.454 181.895 57.5417C182.033 57.6321 182.208 57.7226 182.418 57.8187C182.627 57.9148 182.873 57.994 183.147 58.059C183.424 58.124 183.724 58.1551 184.049 58.1551C184.753 58.1551 185.287 57.9912 185.649 57.6632C186.014 57.3325 186.195 56.9197 186.195 56.4222C186.195 56.0349 186.079 55.7013 185.844 55.4243C185.612 55.1472 185.312 54.9041 184.948 54.6949C184.583 54.4857 184.199 54.285 183.803 54.0984C183.382 53.9033 183 53.6913 182.658 53.468C182.316 53.2446 182.042 52.9846 181.835 52.6877C181.632 52.3909 181.527 52.0347 181.527 51.6191C181.527 51.2035 181.643 50.8502 181.881 50.5364C182.115 50.2198 182.432 49.9738 182.833 49.7929C183.235 49.612 183.681 49.5215 184.179 49.5215" fill="white"/>
<path d="M189.109 53.1085H190.279V50.7988H191.054V53.1085H192.589V53.8152H191.054V57.1511C191.054 57.5243 191.122 57.7928 191.26 57.9511C191.396 58.1123 191.568 58.1914 191.775 58.1914C191.97 58.1914 192.12 58.1575 192.219 58.0897C192.32 58.0218 192.38 57.9766 192.397 57.954L192.759 58.5505C192.733 58.5731 192.668 58.6126 192.575 58.6692C192.479 58.7257 192.354 58.7794 192.199 58.8275C192.043 58.8756 191.857 58.8982 191.636 58.8982C191.257 58.8982 190.935 58.7766 190.672 58.5307C190.409 58.2875 190.279 57.8946 190.279 57.3546V53.8124H189.109V53.1057V53.1085Z" fill="white"/>
<path d="M197.432 58.898C196.869 58.898 196.371 58.7679 195.933 58.505C195.498 58.2421 195.156 57.8888 194.907 57.4393C194.658 56.9898 194.534 56.4922 194.534 55.941C194.534 55.3897 194.658 54.8837 194.907 54.4285C195.156 53.9734 195.498 53.6115 195.933 53.3458C196.369 53.0772 196.869 52.9443 197.432 52.9443C197.994 52.9443 198.489 53.08 198.921 53.3458C199.354 53.6115 199.693 53.9734 199.939 54.4285C200.188 54.8837 200.309 55.3869 200.309 55.941C200.309 56.495 200.188 56.9926 199.939 57.4393C199.693 57.8859 199.354 58.2421 198.921 58.505C198.489 58.7679 197.991 58.898 197.432 58.898ZM197.432 58.1912C197.856 58.1912 198.226 58.0951 198.545 57.8972C198.862 57.6993 199.108 57.4308 199.283 57.0887C199.461 56.7466 199.549 56.3622 199.549 55.9381C199.549 55.5141 199.461 55.1211 199.283 54.7762C199.108 54.4313 198.862 54.1571 198.545 53.9536C198.229 53.75 197.856 53.6483 197.432 53.6483C197.008 53.6483 196.629 53.75 196.309 53.9536C195.99 54.1571 195.741 54.4313 195.56 54.7762C195.382 55.1211 195.294 55.5084 195.294 55.9381C195.294 56.3678 195.385 56.7466 195.56 57.0887C195.738 57.4308 195.987 57.7022 196.309 57.8972C196.629 58.0951 197.002 58.1912 197.432 58.1912Z" fill="white"/>
<path d="M203.583 58.734H202.814V53.1083H203.583V54.1232H203.549C203.569 54.0045 203.651 53.8518 203.798 53.668C203.948 53.4843 204.149 53.3175 204.406 53.1677C204.66 53.0178 204.963 52.9443 205.311 52.9443C205.576 52.9443 205.803 52.9754 205.992 53.0433C206.181 53.1111 206.311 53.179 206.385 53.2468L206.043 53.9112C205.984 53.8518 205.873 53.7924 205.712 53.7331C205.551 53.6737 205.353 53.6426 205.127 53.6426C204.81 53.6426 204.539 53.7472 204.307 53.9564C204.078 54.1656 203.897 54.4172 203.773 54.7056C203.646 54.9967 203.583 55.2625 203.583 55.5028V58.7284V58.734Z" fill="white"/>
<path d="M208.839 50.8275C208.675 50.8275 208.533 50.7681 208.417 50.6522C208.302 50.5363 208.242 50.3949 208.242 50.231C208.242 50.067 208.302 49.92 208.42 49.8013C208.539 49.6853 208.678 49.626 208.839 49.626C208.949 49.626 209.051 49.6542 209.144 49.708C209.237 49.7617 209.314 49.8352 209.37 49.9228C209.427 50.0104 209.455 50.1122 209.455 50.2281C209.455 50.3921 209.396 50.5334 209.274 50.6494C209.152 50.7653 209.008 50.8246 208.839 50.8246M208.44 53.1088H209.215V58.7346H208.44V53.1088Z" fill="white"/>
<path d="M212.604 56.0143C212.61 56.4073 212.689 56.7748 212.842 57.1169C212.995 57.4589 213.226 57.736 213.537 57.9452C213.848 58.1544 214.238 58.259 214.708 58.259C215.092 58.259 215.412 58.1968 215.669 58.0724C215.926 57.9452 216.132 57.801 216.285 57.6342C216.438 57.4674 216.545 57.3176 216.61 57.1847L217.096 57.6653C216.927 57.9254 216.732 58.1487 216.511 58.3325C216.288 58.5162 216.031 58.6576 215.731 58.7537C215.431 58.847 215.075 58.8951 214.665 58.8951C214.069 58.8951 213.557 58.7622 213.133 58.4936C212.712 58.2279 212.39 57.8632 212.169 57.4024C211.946 56.9416 211.835 56.4243 211.835 55.8476C211.835 55.2709 211.946 54.8044 212.163 54.3662C212.384 53.928 212.698 53.5803 213.113 53.3259C213.526 53.0714 214.026 52.9414 214.612 52.9414C215.14 52.9414 215.601 53.0573 215.991 53.2891C216.381 53.5209 216.687 53.846 216.901 54.2588C217.119 54.6715 217.227 55.1521 217.227 55.7006C217.227 55.743 217.227 55.7938 217.224 55.8589C217.224 55.9239 217.218 55.9719 217.215 56.0087H212.604V56.0143ZM216.449 55.3613C216.446 55.1125 216.384 54.8525 216.268 54.5754C216.152 54.3012 215.963 54.0637 215.7 53.8715C215.437 53.6764 215.078 53.5803 214.62 53.5803C214.162 53.5803 213.766 53.6764 213.486 53.8658C213.207 54.0552 213 54.2871 212.873 54.5613C212.746 54.8327 212.669 55.1012 212.641 55.3613H216.452H216.449Z" fill="white"/>
<path d="M221.594 52.9443C221.854 52.9443 222.1 52.9726 222.332 53.0291C222.561 53.0857 222.764 53.1564 222.937 53.2412C223.109 53.326 223.242 53.4023 223.327 53.4702L222.948 54.0129C222.852 53.9225 222.685 53.8235 222.448 53.7218C222.21 53.62 221.942 53.5663 221.645 53.5663C221.28 53.5663 220.966 53.6426 220.712 53.7924C220.455 53.9423 220.325 54.1628 220.325 54.4511C220.325 54.7395 220.455 54.9515 220.715 55.1155C220.975 55.2794 221.317 55.4151 221.741 55.5197C222.066 55.6017 222.36 55.7035 222.629 55.8279C222.897 55.9523 223.109 56.1191 223.268 56.3311C223.426 56.5431 223.508 56.8258 223.508 57.1764C223.508 57.476 223.446 57.7361 223.324 57.9538C223.2 58.1715 223.033 58.3467 222.821 58.4853C222.609 58.6209 222.369 58.7255 222.097 58.7934C221.826 58.8612 221.546 58.8952 221.249 58.8952C220.952 58.8952 220.658 58.8612 220.398 58.7934C220.138 58.7255 219.915 58.6407 219.731 58.5474C219.547 58.4513 219.406 58.3609 219.31 58.2789L219.7 57.6682C219.819 57.7926 220.014 57.9198 220.285 58.0499C220.557 58.1799 220.876 58.245 221.241 58.245C221.665 58.245 222.015 58.146 222.292 57.9509C222.567 57.7531 222.705 57.4958 222.705 57.1764C222.705 56.9445 222.64 56.7551 222.507 56.6138C222.374 56.4724 222.202 56.3593 221.987 56.2745C221.772 56.1897 221.543 56.1191 221.303 56.0597C221.071 56.0003 220.848 55.9296 220.636 55.8448C220.424 55.76 220.234 55.6554 220.07 55.5282C219.906 55.401 219.776 55.2455 219.683 55.0646C219.59 54.8837 219.544 54.6745 219.544 54.4313C219.544 54.1317 219.638 53.8688 219.824 53.6483C220.011 53.4249 220.26 53.2525 220.573 53.1309C220.887 53.0065 221.227 52.9472 221.591 52.9472" fill="white"/>
<path d="M29.2736 9.71699C29.2736 9.05264 29.0361 8.4929 28.564 8.03775C28.0919 7.5826 27.5407 7.35645 26.9102 7.35645H23.3397V7.67024H24.8098C25.1264 7.67024 25.378 7.76636 25.5702 7.9586C25.7625 8.15083 25.8586 8.3883 25.8586 8.66817V37.7353H23.3369V38.0491H31.7896V37.7353H29.268V9.71699H29.2736Z" fill="white"/>
<path d="M21.5276 32.5878C21.211 33.3935 20.9594 34.0155 20.7671 34.4508C20.5749 34.889 20.295 35.4035 19.9275 36C19.56 36.5937 19.1048 37.0319 18.5621 37.3117C18.0193 37.5916 17.3804 37.733 16.6454 37.733H5.93387V1.60677H8.45555V1.29297H0V1.60677H2.52168V37.733H0V38.0496H21.1601L22.0534 32.1157H21.6859C21.6491 32.2203 21.5954 32.3786 21.5276 32.5878Z" fill="white"/>
<path d="M145.819 1.60677H148.341V37.733H145.819V38.0467H154.275V37.733H151.753V1.60677H154.275V1.29297H145.819V1.60677Z" fill="white"/>
<path d="M55.7117 1.29297H34.1841V1.60959H36.7058V37.733H34.1841V38.0496H42.6368V37.733H40.1151V18.0429H48.042C49.0202 18.0429 49.7835 18.368 50.3262 19.0154C50.869 19.6628 51.3157 20.5476 51.6662 21.6671H51.9829L50.8266 14.2632H50.4082C50.8266 16.5729 50.0407 17.7291 48.0448 17.7291H40.1179V1.60959H51.1969C51.932 1.60959 52.5709 1.74812 53.1137 2.02799C53.6564 2.30786 54.1116 2.74604 54.4791 3.34254C54.8466 3.93621 55.1265 4.45355 55.3187 4.89174C55.5109 5.32992 55.7654 5.95186 56.0792 6.75473C56.1498 6.96392 56.2007 7.12224 56.2375 7.22683H56.605L55.7117 1.29297Z" fill="white"/>
<path d="M114.527 35.4206C112.356 36.8906 109.733 37.6256 106.651 37.6256C104.585 37.6256 102.643 36.8482 100.822 35.2877C99.0014 33.73 97.5313 31.5617 96.4119 28.7771C95.2924 25.9954 94.7326 22.9592 94.7326 19.6685C94.7326 16.3779 95.2839 13.3417 96.3864 10.56C97.4889 7.7782 98.9166 5.60707 100.666 4.04939C102.416 2.49172 104.271 1.71147 106.23 1.71147C107.629 1.71147 108.978 1.92066 110.273 2.34189C111.567 2.76311 112.628 3.2437 113.45 3.78648C114.273 4.32927 115.025 4.95969 115.709 5.67492C116.39 6.39297 116.865 6.93576 117.125 7.30327C117.388 7.67077 117.589 7.99305 117.73 8.27575H118.151V1.81889H117.73V3.55184C117.73 4.11159 117.538 4.50454 117.154 4.73353C116.766 4.95969 116.277 4.90032 115.683 4.54977C113.934 3.39353 112.41 2.56239 111.115 2.05636C109.82 1.55033 108.192 1.2959 106.233 1.2959C103.397 1.2959 100.746 2.0818 98.2777 3.65927C95.8097 5.2339 93.8421 7.422 92.3721 10.2236C90.902 13.0251 90.167 16.0867 90.167 19.4113C90.167 20.7796 90.3084 22.1111 90.5741 23.4087L90.5402 23.42C90.2518 26.3968 89.2991 29.0174 87.6821 31.2818C86.0622 33.5463 83.8119 35.2001 80.9256 36.2404C78.5113 37.1111 75.7833 37.2779 72.7329 35.9181C69.6854 34.5612 67.0818 32.3702 64.9219 29.351C64.4244 28.6527 64.2237 27.5135 64.3113 26.7502C64.4018 25.9869 64.7891 25.2038 65.4704 24.3953C66.1517 23.5896 66.8358 22.8546 67.5228 22.1931C68.2097 21.5315 69.1229 20.8248 70.265 20.07C71.4042 19.3208 72.2637 18.7639 72.8432 18.4105C73.4199 18.0572 74.1606 17.6416 75.0624 17.1723C75.2179 17.0677 75.3394 16.997 75.4271 16.9688C78.7262 15.0464 80.7588 13.729 81.5221 13.0138C82.4437 12.194 83.0854 11.3402 83.4501 10.4554C83.8119 9.57052 83.9137 8.77896 83.761 8.07786C83.6056 7.37959 83.3681 6.76048 83.0515 6.21487C82.7348 5.67209 82.3475 5.23956 81.8896 4.91728C79.7015 3.17585 77.29 2.05919 74.6553 1.57577C72.0205 1.09235 69.3886 1.32417 66.7595 2.27121C62.5812 3.778 59.9775 6.80289 58.1343 11.3402C56.2911 15.8804 56.2317 20.5393 57.959 25.3225C59.0955 28.469 61.0433 31.1009 63.8053 33.2212C66.5672 35.3414 69.1398 36.6871 72.34 37.2609C75.543 37.8348 78.4944 37.6087 81.1913 36.5853C83.0882 35.9012 84.7109 34.9739 86.0679 33.8007C87.422 32.6303 88.4312 31.3751 89.0928 30.0408C89.7543 28.7065 90.2207 27.5022 90.4921 26.4307C90.6448 25.8257 90.7635 25.2264 90.8625 24.6243C91.2526 26.0434 91.801 27.423 92.5219 28.7545C94.0965 31.6607 96.1631 33.9449 98.7187 35.6072C101.274 37.2694 103.951 38.0836 106.753 38.0497C113.018 37.979 117.428 35.0559 119.983 29.2803H119.46C118.338 31.9066 116.693 33.9534 114.524 35.4234M61.3514 22.521C60.6701 20.6976 60.0199 18.7215 59.8757 16.6324C59.7287 14.5432 59.8842 12.5784 60.2885 10.7776C60.7012 8.93444 61.6228 7.30327 62.6716 5.82757C63.7205 4.35188 65.1311 3.29741 66.898 2.65851C71.2488 1.0867 75.2405 2.49737 78.8703 6.88204C80.1877 8.50191 80.5411 10.1274 79.9361 11.7558C79.3311 13.3898 77.7508 14.9814 75.1952 16.5362C73.8241 17.325 72.6933 18.0006 71.8 18.566C70.9095 19.1342 69.8918 19.8269 68.7553 20.6523C67.6161 21.4778 66.7312 22.2242 66.0951 22.8913C65.4591 23.5585 64.9276 24.3105 64.4979 25.1473C64.071 25.9869 63.8929 27.1912 63.9692 27.9403C63.1777 26.4251 62.0327 24.3444 61.3486 22.521" fill="white"/>
<path d="M143.354 32.5878C143.038 33.3935 142.786 34.0155 142.591 34.4508C142.399 34.889 142.119 35.4035 141.751 36C141.384 36.5937 140.929 37.0319 140.386 37.3117C139.843 37.5916 139.204 37.733 138.469 37.733H127.758V1.60677H130.279V1.29297H121.827V1.60677H124.348V37.733H121.827V38.0496H142.987L143.877 32.1157H143.51C143.476 32.2203 143.422 32.3786 143.351 32.5878" fill="white"/>
<path d="M181.151 35.4205C178.98 36.8905 176.357 37.6255 173.275 37.6255C171.209 37.6255 169.267 36.8481 167.446 35.2904C165.625 33.7328 164.155 31.5616 163.036 28.7799C161.914 25.9953 161.357 22.9619 161.357 19.6684C161.357 16.375 161.908 13.3416 163.01 10.5599C164.113 7.7781 165.538 5.60697 167.29 4.04929C169.04 2.49162 170.895 1.71136 172.854 1.71136C174.253 1.71136 175.602 1.92056 176.897 2.34178C178.191 2.76301 179.251 3.2436 180.074 3.78638C180.897 4.32916 181.649 4.95958 182.33 5.67481C183.014 6.39287 183.486 6.93565 183.749 7.30316C184.012 7.67067 184.213 7.99578 184.354 8.27565H184.773V1.81879H184.354V3.55174C184.354 4.11148 184.162 4.50444 183.778 4.73342C183.39 4.95958 182.901 4.90022 182.307 4.54967C180.558 3.39343 179.034 2.56229 177.739 2.05343C176.444 1.5474 174.816 1.29297 172.857 1.29297C170.021 1.29297 167.37 2.0817 164.902 3.65634C162.434 5.23097 160.466 7.41907 158.996 10.2206C157.526 13.0222 156.791 16.0838 156.791 19.4112C156.791 22.7386 157.58 25.8511 159.154 28.7572C160.729 31.6634 162.793 33.9476 165.351 35.6099C167.907 37.2722 170.584 38.0863 173.385 38.0524C179.65 37.9846 184.06 35.0586 186.619 29.2859H186.093C184.973 31.9093 183.325 33.9589 181.157 35.429" fill="white"/>
<path d="M243.764 26.8626C243.291 24.9713 242.178 23.2752 240.428 21.7684C238.992 20.5103 237.092 19.258 234.731 18.0141C232.368 16.7702 230.129 15.6168 228.009 14.5482C225.891 13.4796 224.359 12.493 223.415 11.5827C221.453 9.72536 220.859 7.803 221.628 5.80714C222.013 4.75832 222.705 3.87347 223.703 3.15541C224.701 2.44018 225.812 1.93132 227.036 1.63449C228.263 1.33765 229.513 1.20479 230.79 1.24154C232.068 1.27546 233.196 1.4677 234.177 1.81824C236.278 2.59001 238.183 3.96393 239.899 5.94001C241.612 7.9189 242.472 9.4681 242.472 10.5876H242.893V1.29242H242.472C242.472 1.88609 242.339 2.32428 242.079 2.60415C241.816 2.88402 241.372 2.9971 240.739 2.94622C240.108 2.8925 239.557 2.79639 239.085 2.65786C238.613 2.51934 237.903 2.29035 236.959 1.97373C236.399 1.79846 235.961 1.65993 235.647 1.55533C233.968 1.02951 232.198 0.766602 230.344 0.766602C228.489 0.766602 226.581 1.03799 224.831 1.58078C223.081 2.12356 221.628 2.90098 220.472 3.91588C219.036 5.14279 218.258 6.68351 218.134 8.53802C218.012 10.3925 218.564 12.0378 219.788 13.474C220.873 14.7348 222.553 15.9872 224.828 17.2282C227.104 18.4721 229.53 19.7499 232.099 21.0616C234.672 22.3733 236.659 23.6257 238.059 24.8159C239.876 26.4273 240.806 28.3694 240.84 30.6451C240.874 32.9209 239.896 34.7923 237.9 36.2624C235.975 37.6278 233.524 38.2384 230.55 38.0999C228.696 37.9953 226.85 37.4356 225.009 36.4207C223.172 35.4058 221.622 33.9979 220.362 32.1943C219.101 30.3907 218.473 28.457 218.473 26.3905H218.052V38.0462H218.473C218.473 35.8411 219.96 35.4567 222.937 36.89C225.247 38.0095 227.802 38.5692 230.604 38.5692C233.51 38.6738 236.167 38.0603 238.584 36.7317C240.685 35.6122 242.189 34.1591 243.102 32.3724C244.012 30.5858 244.23 28.7482 243.758 26.8598" fill="white"/>
<path d="M27.0703 0.000501563L24.9214 2.14941L27.0703 4.29833L29.2192 2.14941L27.0703 0.000501563Z" fill="white"/>
<path d="M194.277 37.733H196.796V38.0496H188.343V37.733H190.862V1.60677H188.343V1.29297H196.796V1.60677H194.277V21.6134L210.029 1.60677H208.14V1.29297H212.076V1.60677H210.396L199.371 15.6287L214.334 37.733H216.33V38.0496H207.982V37.733H210.555L197.426 18.0966L194.277 22.1392V37.733Z" fill="white"/>
</svg>
